<?xml version="1.0" standalone="no"?>
<!DOCTYPE svg PUBLIC "-//W3C//DTD SVG 20010904//EN"
 "http://www.w3.org/TR/2001/REC-SVG-20010904/DTD/svg10.dtd">
<svg version="1.0" xmlns="http://www.w3.org/2000/svg"
 width="300.000000pt" height="276.000000pt" viewBox="0 0 300.000000 276.000000"
 preserveAspectRatio="xMidYMid meet">
<metadata>
Created by potrace 1.10, written by Peter Selinger 2001-2011
</metadata>
<g transform="translate(0.000000,276.000000) scale(0.100000,-0.100000)"
fill="#0759ad" stroke="none">
<path d="M929 2007 c-42 -28 -79 -98 -79 -152 0 -91 74 -175 154 -175 152 0
204 243 70 330 -40 27 -102 26 -145 -3z"/>
<path d="M1926 2010 c-49 -32 -76 -86 -76 -155 0 -176 189 -241 274 -95 15 25
21 53 21 95 0 70 -23 118 -75 152 -42 29 -104 30 -144 3z"/>
<path d="M1432 1950 c-46 -28 -76 -97 -70 -162 8 -80 68 -143 138 -143 106 0
172 132 120 239 -38 80 -119 108 -188 66z"/>
<path d="M854 1571 c-81 -8 -130 -32 -157 -79 -17 -28 -19 -57 -19 -282 -1
-237 0 -252 19 -278 22 -30 53 -41 53 -19 0 8 -9 22 -20 32 -27 24 -25 35 9
82 27 37 30 52 41 174 7 74 14 136 16 138 2 2 9 1 16 -2 11 -4 12 -22 7 -83
-4 -44 -8 -92 -8 -107 l-1 -29 53 47 c28 27 69 59 89 73 l38 25 56 -48 c49
-43 59 -47 82 -39 27 9 27 10 32 139 5 136 11 157 58 207 14 15 23 31 19 35
-18 17 -250 26 -383 14z"/>
<path d="M1848 1571 c-43 -4 -80 -10 -84 -14 -4 -4 4 -20 18 -35 47 -50 53
-71 58 -207 5 -129 5 -130 32 -139 23 -8 33 -4 82 39 65 55 56 57 172 -42 l66
-55 -7 84 c-3 45 -8 93 -11 106 -3 14 1 25 11 28 9 4 17 5 19 3 2 -2 9 -64 15
-137 11 -123 14 -137 41 -174 35 -48 37 -59 10 -83 -11 -10 -20 -24 -20 -32 0
-22 27 -15 49 13 20 25 21 39 21 282 0 243 -1 256 -22 290 -34 55 -81 70 -238
75 -74 3 -170 2 -212 -2z"/>
<path d="M1365 1541 c-80 -8 -102 -18 -139 -62 -25 -29 -26 -36 -26 -150 0
-65 2 -119 4 -119 14 0 72 25 78 34 4 6 8 36 8 66 0 70 8 80 61 91 90 17 324
7 347 -15 3 -4 8 -39 10 -77 5 -75 3 -73 70 -94 l24 -7 -4 125 c-3 118 -5 127
-28 153 -14 14 -39 32 -55 39 -37 16 -255 26 -350 16z"/>
<path d="M1388 1371 c-26 -4 -49 -9 -52 -12 -3 -3 -8 -37 -12 -77 l-7 -71 -51
-17 c-28 -9 -72 -27 -98 -40 -26 -13 -53 -24 -60 -24 -7 0 -37 20 -67 44 l-54
45 -45 -32 c-46 -33 -150 -140 -178 -182 -18 -27 -22 -19 59 -119 17 -21 17
-24 -12 -86 -16 -36 -34 -84 -41 -107 -14 -47 -27 -53 -107 -53 -28 0 -54 -4
-57 -9 -3 -5 -9 -41 -12 -80 l-7 -71 205 0 205 0 12 71 c32 178 166 331 341
389 55 19 81 21 171 18 97 -4 113 -8 183 -41 158 -75 265 -218 290 -389 l7
-48 206 0 206 0 -7 71 c-3 39 -9 75 -12 80 -3 5 -29 9 -57 9 -81 0 -93 6 -107
53 -6 23 -25 70 -41 105 -33 68 -33 66 24 134 l39 47 -36 50 c-37 49 -121 132
-175 170 l-28 20 -54 -45 c-29 -24 -60 -44 -67 -44 -7 0 -34 11 -60 24 -26 13
-70 31 -98 40 l-51 17 -7 71 c-4 40 -9 74 -11 77 -17 17 -188 24 -277 12z"/>
</g>
</svg>
