<?xml version="1.0" standalone="no"?>
<!DOCTYPE svg PUBLIC "-//W3C//DTD SVG 20010904//EN"
 "http://www.w3.org/TR/2001/REC-SVG-20010904/DTD/svg10.dtd">
<svg version="1.0" xmlns="http://www.w3.org/2000/svg"
 width="300.000000pt" height="225.000000pt" viewBox="0 0 300.000000 225.000000"
 preserveAspectRatio="xMidYMid meet">
<metadata>
Created by potrace 1.10, written by Peter Selinger 2001-2011
</metadata>
<g transform="translate(0.000000,225.000000) scale(0.100000,-0.100000)"
fill="#0759ad" stroke="none">
<path d="M715 1986 c-128 -40 -215 -160 -215 -297 0 -119 68 -227 175 -279 74
-37 188 -36 267 3 111 55 172 152 172 277 1 62 -4 85 -27 132 -67 137 -230
209 -372 164z"/>
<path d="M2084 1980 c-71 -28 -137 -89 -171 -158 -23 -47 -28 -70 -27 -132 0
-125 61 -222 172 -277 79 -39 193 -40 267 -3 232 114 233 447 0 560 -68 33
-172 37 -241 10z"/>
<path d="M1419 1807 c-150 -43 -244 -164 -244 -317 0 -65 5 -85 33 -142 122
-248 462 -248 584 0 28 57 33 77 33 142 0 129 -65 234 -178 290 -73 36 -160
46 -228 27z"/>
<path d="M547 1296 c-99 -27 -186 -119 -207 -219 -6 -30 -9 -131 -8 -237 l3
-185 76 -33 c42 -18 111 -41 153 -52 86 -22 264 -36 320 -26 l36 7 0 153 c0
175 10 222 65 301 44 65 109 112 193 140 l65 22 -42 45 c-23 25 -65 56 -94 69
-49 23 -64 24 -282 26 -166 2 -243 -1 -278 -11z"/>
<path d="M1935 1296 c-65 -21 -99 -42 -140 -87 l-38 -42 66 -22 c83 -28 148
-75 192 -140 55 -79 65 -126 65 -301 l0 -153 36 -7 c56 -10 234 4 320 26 42
11 111 34 153 53 l76 32 0 215 c0 246 -6 271 -85 350 -79 79 -102 85 -370 87
-171 2 -246 -1 -275 -11z"/>
<path d="M1215 1081 c-94 -24 -184 -108 -210 -194 -11 -39 -15 -106 -15 -287
l0 -237 78 -31 c278 -110 586 -110 865 0 l77 31 0 237 c0 274 -7 311 -71 384
-23 26 -65 59 -93 74 l-51 27 -275 2 c-151 1 -288 -2 -305 -6z"/>
</g>
</svg>
