<?xml version="1.0" standalone="no"?>
<!DOCTYPE svg PUBLIC "-//W3C//DTD SVG 20010904//EN"
 "http://www.w3.org/TR/2001/REC-SVG-20010904/DTD/svg10.dtd">
<svg version="1.0" xmlns="http://www.w3.org/2000/svg"
 width="300.000000pt" height="295.000000pt" viewBox="0 0 300.000000 295.000000"
 preserveAspectRatio="xMidYMid meet">
<metadata>
Created by potrace 1.10, written by Peter Selinger 2001-2011
</metadata>
<g transform="translate(0.000000,295.000000) scale(0.050000,-0.050000)"
fill="#0759ad" stroke="none">
<path d="M2666 4935 c5 -14 28 -71 50 -126 l41 -102 -116 -63 c-232 -128 -361
-86 -361 117 0 123 -35 93 -53 -46 l-17 -125 -90 6 c-86 5 -92 2 -136 -75 -52
-94 -51 -94 -175 -40 -136 58 -146 40 -30 -48 118 -91 115 -77 43 -200 -39
-67 -88 -114 -159 -155 -124 -71 -101 -76 -192 43 -93 122 -105 117 -52 -24
52 -135 53 -126 -29 -174 -63 -38 -70 -50 -70 -131 0 -100 -1 -100 -178 -123
-128 -16 -104 -38 63 -58 l115 -14 0 -117 c0 -94 -12 -137 -63 -226 l-63 -109
-119 49 c-66 26 -123 44 -128 40 -6 -6 128 -124 190 -166 3 -2 -14 -40 -39
-83 l-45 -79 45 -77 46 -78 -87 -75 c-48 -41 -94 -75 -102 -75 -8 -1 -15 -10
-15 -21 0 -16 45 -2 233 73 51 21 149 -204 143 -327 l-6 -116 -125 -17 c-161
-21 -159 -45 5 -62 l130 -14 0 -94 c0 -87 5 -97 70 -132 82 -44 84 -56 29
-182 -59 -139 -40 -144 58 -18 l87 111 53 -34 c124 -78 176 -129 222 -215 l49
-91 -59 -46 c-98 -77 -161 -140 -129 -130 17 5 77 29 135 52 l105 41 40 -78
c37 -73 47 -79 135 -85 l95 -6 17 -127 c24 -180 46 -140 73 132 1 19 270 0
306 -22 24 -14 68 -41 98 -59 l53 -33 -48 -124 c-62 -157 -53 -164 44 -39 88
114 93 116 182 62 65 -39 65 -39 130 0 89 54 94 52 182 -62 97 -125 106 -118
44 39 l-48 124 53 33 c30 18 74 45 98 59 25 15 101 27 173 27 140 0 153 -15
153 -181 0 -109 37 -78 53 46 l17 125 95 6 c88 6 98 12 135 85 l40 78 105 -41
c58 -23 119 -47 135 -52 32 -10 -31 53 -129 130 l-59 46 59 108 c39 72 84 122
134 150 41 23 75 49 75 58 0 48 74 1 146 -92 96 -122 113 -114 55 23 -55 126
-53 138 29 182 65 35 70 45 70 132 l0 94 130 14 c164 17 165 38 5 61 l-125 18
-6 116 c-6 123 92 348 143 327 188 -75 233 -89 233 -73 0 11 -7 20 -15 21 -8
0 -54 34 -103 76 l-87 76 46 80 46 81 -46 74 c-25 41 -42 76 -38 79 73 53 196
161 190 167 -5 4 -62 -14 -128 -40 l-119 -49 -63 109 c-51 89 -63 132 -63 227
l0 117 120 14 c151 17 170 41 45 58 -164 23 -165 23 -165 122 0 81 -7 93 -70
131 -82 48 -81 39 -29 174 53 141 41 146 -52 24 -91 -118 -74 -115 -196 -43
-84 49 -211 208 -213 265 0 7 45 47 101 90 116 88 106 106 -30 48 -124 -54
-123 -54 -175 40 -44 77 -50 80 -136 75 l-89 -6 -21 137 c-21 143 -50 161 -50
31 0 -200 -136 -242 -363 -113 l-114 65 49 118 c38 95 52 174 22 130 -3 -4
-39 -51 -81 -103 l-75 -95 -79 45 -79 45 -79 -45 -80 -46 -75 100 c-71 93
-123 132 -100 76z m472 -270 l132 -75 -135 -6 c-74 -3 -196 -3 -270 0 l-135 6
130 75 c157 90 120 90 278 0z m-760 -173 c-24 -23 -429 -248 -435 -242 -4 4
26 62 66 129 l74 121 152 0 c83 0 148 -4 143 -8z m589 -157 c10 -85 25 -155
33 -155 8 0 23 70 33 155 l17 155 185 6 184 5 161 -92 c185 -107 177 -85 99
-269 -80 -188 -67 -193 61 -21 l104 142 63 -39 c35 -21 108 -64 163 -96 81
-48 116 -88 193 -221 l94 -163 -139 -104 c-170 -125 -166 -137 18 -58 184 78
167 84 272 -99 91 -157 92 -162 92 -339 0 -205 13 -191 -206 -213 -168 -17
-157 -33 42 -59 l154 -20 6 -177 6 -176 -94 -164 c-51 -89 -96 -166 -100 -170
-3 -5 -66 16 -140 45 -169 68 -178 58 -39 -51 61 -47 111 -92 111 -99 0 -28
-185 -338 -202 -338 -9 0 -76 -36 -148 -80 -162 -99 -141 -103 -258 52 -121
160 -127 156 -47 -37 34 -85 59 -157 54 -161 -5 -4 -76 -45 -157 -91 l-148
-84 -192 5 -192 6 -18 145 c-22 184 -42 184 -64 0 l-18 -145 -192 -6 -192 -5
-148 84 c-81 46 -152 87 -157 91 -5 4 20 76 54 161 80 193 74 197 -47 37 -117
-156 -89 -152 -282 -40 -150 88 -281 250 -322 398 -3 11 54 65 125 119 161
121 157 127 -36 48 -85 -34 -157 -59 -161 -55 -4 5 -49 82 -100 171 l-94 164
6 176 6 177 154 20 c199 26 210 42 42 59 -219 22 -206 8 -206 213 0 177 1 182
92 339 105 183 88 177 272 99 184 -79 188 -67 18 58 l-139 104 94 163 c77 133
112 173 193 221 55 32 128 75 163 96 l63 39 104 -142 c127 -171 139 -168 60
17 -78 184 -84 166 95 272 l155 91 190 -5 190 -4 17 -155z m1024 44 c40 -67
70 -125 66 -129 -6 -6 -411 219 -435 242 -5 4 60 8 143 8 l152 0 74 -121z
m-2350 -464 c-23 -36 -84 -141 -136 -235 l-95 -170 -6 148 c-7 165 -9 160 139
252 136 85 151 85 98 5z m2820 -9 c145 -86 143 -82 135 -258 l-6 -138 -95 170
c-52 94 -113 199 -136 235 -54 82 -49 81 102 -9z m-3141 -1011 l-1 -265 -79
137 -80 136 72 129 c92 165 88 171 88 -137z m3448 137 l72 -129 -80 -136 -79
-137 -1 265 c0 308 -4 302 88 137z m-3218 -979 c134 -232 134 -229 -25 -136
l-124 73 -1 149 c0 175 0 175 150 -86z m3050 82 l-1 -145 -124 -73 c-144 -84
-154 -84 -100 7 22 36 77 131 123 211 46 80 88 145 93 145 5 0 9 -65 9 -145z
m-2439 -686 l229 -131 -158 6 -159 6 -76 125 c-42 69 -74 125 -71 125 4 0 109
-59 235 -131z m1842 6 l-76 -125 -159 -6 -158 -5 220 128 c121 71 227 129 235
131 8 1 -20 -54 -62 -123z m-858 -305 c-69 -39 -134 -70 -145 -70 -11 0 -76
31 -145 70 l-125 70 270 0 270 0 -125 -70z"/>
<path d="M2895 3871 c10 -266 8 -291 -23 -291 -31 0 -34 23 -28 210 5 168 1
210 -22 210 -22 0 -25 -40 -18 -210 l9 -210 -256 0 c-158 0 -257 -8 -257 -20
0 -12 100 -20 260 -20 160 0 260 -8 260 -20 0 -13 -123 -20 -330 -20 l-330 0
0 -52 0 -52 324 7 c242 4 325 0 331 -19 6 -18 -71 -24 -325 -24 -331 0 -333 0
-326 -44 6 -43 10 -43 331 -38 222 3 325 -2 325 -16 0 -15 -87 -22 -260 -22
-160 0 -260 -8 -260 -20 0 -12 99 -20 256 -20 l255 0 -7 -700 c-7 -578 -3
-700 19 -700 22 0 26 123 21 700 -4 632 -2 700 27 700 29 0 32 -73 26 -770
l-7 -770 46 0 45 0 -2 650 c-2 585 -5 652 -35 671 -31 20 -31 21 1 11 30 -9
35 4 35 99 0 60 9 109 20 109 24 0 25 -40 20 -875 l-4 -665 52 0 52 0 0 770
c0 500 7 770 20 770 13 0 20 -247 20 -700 0 -453 7 -700 20 -700 13 0 20 247
20 700 l0 700 250 0 c153 0 250 8 250 20 0 12 -97 20 -250 20 -169 0 -250 7
-250 22 0 16 95 20 320 15 l320 -7 0 45 c0 45 -1 45 -320 45 -248 0 -320 6
-320 26 0 20 68 24 320 17 l320 -8 0 53 c0 57 -145 81 -167 27 -8 -20 -10 -20
-11 0 -2 18 -62 25 -232 25 -140 0 -230 8 -230 20 0 12 97 20 250 20 153 0
250 8 250 20 0 12 -97 20 -250 20 l-250 0 0 220 c0 133 -8 220 -20 220 -12 0
-20 -87 -20 -220 0 -133 -8 -220 -20 -220 -12 0 -20 110 -20 290 l0 290 -50 0
-50 0 0 -304 c0 -388 -37 -376 -44 14 -6 269 -8 280 -49 286 -43 6 -43 4 -32
-285z m25 -339 c0 -5 -5 -23 -12 -40 -18 -46 -68 -39 -68 8 0 27 13 40 40 40
22 0 40 -4 40 -8z m140 -3 c0 -42 -61 -71 -90 -42 -43 43 -38 53 30 53 33 0
60 -5 60 -11z m100 -29 c0 -47 -13 -50 -51 -11 -39 38 -36 51 11 51 27 0 40
-13 40 -40z m-260 -120 c0 -40 -10 -60 -30 -60 -20 0 -30 20 -30 60 0 40 10
60 30 60 20 0 30 -20 30 -60z m120 0 c0 -33 -9 -60 -20 -60 -11 0 -20 27 -20
60 0 33 9 60 20 60 11 0 20 -27 20 -60z m140 0 c0 -33 -9 -60 -20 -60 -11 0
-20 27 -20 60 0 33 9 60 20 60 11 0 20 -27 20 -60z m-245 -115 c5 -15 -9 -25
-33 -25 -25 0 -42 13 -42 31 0 37 62 32 75 -6z m113 23 c53 -20 36 -48 -28
-48 -60 0 -81 28 -35 47 14 5 27 11 28 11 2 1 18 -3 35 -10z"/>
<path d="M1867 2830 c6 -16 18 -75 25 -131 15 -113 171 -279 263 -279 52 0 54
-16 23 -161 -19 -88 -31 -107 -88 -130 -63 -27 -90 -62 -90 -121 0 -23 50 -28
271 -28 l272 0 -14 45 c-20 63 -42 87 -107 114 -44 18 -60 41 -69 97 -7 41
-18 99 -25 129 -11 49 -7 55 37 55 139 0 295 218 295 413 0 22 -80 27 -402 27
-348 0 -401 -4 -391 -30z m746 -45 c-5 -19 -15 -67 -22 -107 -11 -66 -59 -128
-131 -169 -16 -9 -1 17 35 58 36 41 65 94 65 119 1 67 22 134 44 134 10 0 14
-16 9 -35z m-293 -531 c0 -57 14 -89 55 -126 l54 -51 -59 14 c-33 8 -61 16
-63 17 -1 1 -8 65 -15 142 -10 99 -8 131 7 110 11 -16 21 -64 21 -106z"/>
<path d="M3683 2502 c-13 -8 -55 -64 -93 -123 -80 -127 -94 -114 -18 16 l52
89 -47 -15 c-112 -35 -135 -51 -204 -147 -51 -71 -73 -123 -73 -172 l0 -70
410 0 410 0 0 62 c0 77 -149 298 -202 298 -22 0 -57 -36 -90 -91 -29 -50 -57
-87 -62 -81 -5 5 15 50 44 100 49 83 50 93 19 105 -47 18 -108 -65 -109 -148
0 -52 -8 -65 -40 -65 -39 0 -40 89 -1 120 74 60 78 168 4 122z"/>
</g>
</svg>
